<svg width="304" height="304" viewBox="0 0 304 304" fill="none" xmlns="http://www.w3.org/2000/svg">
<rect width="304" height="304" rx="20" fill="#202D37"/>
<mask id="mask0_5742_287980" style="mask-type:luminance" maskUnits="userSpaceOnUse" x="0" y="0" width="304" height="304">
<rect width="304" height="304" rx="20" fill="white"/>
</mask>
<g mask="url(#mask0_5742_287980)">
<circle cy="304.5" r="33" fill="#34414D"/>
<circle cx="-10" cy="314.5" r="33" fill="#202D37"/>
<circle cx="304" r="33" fill="#34414D"/>
<circle cx="314" cy="-10" r="33" fill="#202D37"/>
<path d="M272.139 11.9998H235.611H74.2222C39.884 12.0537 12.1412 39.8196 12 74.222V214.222V224.916V292.328C12 290.977 68.3889 292 68.3889 292C107.766 291.969 230.032 292 229.778 292C264.258 292 292 264.234 292 229.778V11.9998C292 11.9998 272.114 11.5969 272.139 11.9998Z" fill="#34414D"/>
<path fill-rule="evenodd" clip-rule="evenodd" d="M147 31H172V33H175.316C175.875 34.6064 176.284 36.1514 176.469 37.5396C176.683 39.144 176.554 40.2241 176.3 40.8843C175.65 42.5742 174.118 44.2446 170.444 45.7886C167.564 46.999 163.71 47.9824 158.711 48.8218C158.213 48.9053 157.735 48.6001 157.574 48.1211C157.287 47.2622 156.944 46.4155 156.542 45.5918C154.447 41.3032 150.741 37.6128 145.243 35.9463C144.969 35.8633 144.746 35.6758 144.617 35.4346C144.542 35.293 144.5 35.1328 144.5 34.9648V33H147V31ZM30 85.0001C30 79.7926 32.6895 71.4474 35.0977 68.0284C35.3301 67.6983 35.7454 67.5768 36.1277 67.7071C39.1025 68.7218 51.7747 73.4278 55 81.0001C57.4971 86.8634 60.3162 91.9654 63.6731 96.6686C63.9478 97.0533 63.9197 97.5758 63.6179 97.9396C63.3772 98.2291 63.1484 98.5211 62.9309 98.8155C62.4153 99.5128 60.2534 99.3902 59.927 98.5865C59.4019 97.2936 58.833 96.1544 58.2217 95.1583C56.0581 91.6319 54.0615 89.5001 50.5 89.5001C47.9961 89.5001 45.283 90.2389 43.3296 92.5314C42.1243 93.9459 41.4634 95.6603 41.1731 97.5055C41.1294 97.7828 40.9812 98.0353 40.7502 98.1954C39.1572 99.3024 37.2112 100.532 35.0859 101.672C34.0647 102.219 33.031 102.731 32 103.191V101H30V85.0001ZM249.445 142.869C249.179 143.455 248.886 144.025 248.573 144.579C248.355 144.963 247.903 145.144 247.476 145.032C246.338 144.735 245.213 144.443 244.131 144.165C243.516 144.006 243.203 143.322 243.449 142.736C244.448 140.356 245 137.743 245 135C245 123.955 236.045 115 225 115C220.632 115 216.591 116.4 213.301 118.777C212.933 119.043 212.432 119.049 212.071 118.774L209.537 116.848L211.142 115.243L209.685 113.786L222.567 100.903C222.899 100.571 223.418 100.516 223.816 100.765C229.863 104.554 236.449 107.562 243.433 109.647L243 111.891L245.166 112.31C243.806 117.035 244.076 122.691 247.979 127.972C251.22 132.356 251.442 136.489 250.429 140.174C250.175 141.098 249.84 141.999 249.445 142.869ZM199.434 124.726C197.196 129.152 196.428 136.726 196.829 141.178C197.265 146.018 198.625 149.004 200.634 150.48C200.914 150.686 201.289 150.69 201.597 150.527L203.009 149.779C203.426 149.559 203.63 149.077 203.514 148.62C201.386 140.269 203.093 132.428 205.279 127.131C205.369 126.911 205.38 126.674 205.319 126.458C205.26 126.252 205.138 126.066 204.959 125.93L202.4 123.984L200.546 125.838L199.434 124.726ZM255.029 114.215L257.213 114.637L257.623 112.516C260.538 112.836 263.5 113 266.5 113C267.04 113 267.579 112.995 268.116 112.984C269.059 112.966 269.998 112.931 270.932 112.88C271.51 112.849 272 113.306 272 113.885V152H270V153.062C269.825 152.986 269.649 152.908 269.472 152.829C269.344 152.771 269.216 152.713 269.087 152.653L268.894 152.563C268.731 152.487 268.567 152.409 268.403 152.33C267.794 152.035 267.177 151.718 266.559 151.379C263.727 149.822 261.26 147.989 259.535 145.979C259.303 145.71 259.25 145.333 259.373 145C259.478 144.715 259.578 144.428 259.674 144.138C259.719 143.999 259.764 143.859 259.808 143.719L259.868 143.524C259.939 143.293 260.006 143.06 260.071 142.826C261.807 136.511 261.28 129.143 256.021 122.028C254.149 119.496 254.142 116.588 255.029 114.215ZM261.741 160.142C264.625 161.728 267.534 162.936 270 163.771V166H272V178V179.441H270C269 179.441 268.629 178.42 268.899 177.778C269.199 177.063 269.405 176.299 269.5 175.5C269.511 175.406 269.521 175.311 269.529 175.216C269.541 175.074 269.55 174.93 269.555 174.786C269.557 174.722 269.558 174.658 269.559 174.593L269.56 174.486C269.56 169.792 266.194 166 261.5 166C261.191 166 260.885 166.016 260.585 166.048L260.433 166.066L260.3 166.084C260.222 166.095 260.144 166.107 260.067 166.121L259.933 166.144C259.114 166.297 258.336 166.567 257.618 166.937C257.489 167.003 257.351 167.043 257.211 167.059C257.184 167.062 257.157 167.064 257.13 167.065C257.117 167.065 257.105 167.066 257.092 167.066C257.081 167.066 257.069 167.066 257.057 167.065C256.816 167.059 256.579 166.976 256.388 166.814C255.508 166.067 254.579 165.382 253.595 164.765C253.438 164.666 253.279 164.569 253.12 164.474C253.022 164.416 252.924 164.358 252.825 164.302C252.6 164.172 252.373 164.047 252.144 163.925C251.793 163.738 251.438 163.561 251.079 163.393C250.55 163.145 250.315 162.509 250.576 161.986C251.702 159.734 252.632 157.659 253.377 155.913C253.545 155.519 253.923 155.299 254.312 155.292C254.559 155.288 254.811 155.37 255.017 155.547C257.182 157.408 259.534 158.928 261.741 160.142ZM267.388 189.5H270V191H272V216H270V218.096C268.66 217.213 267.395 216.218 266.224 215.163C264.331 213.455 262.846 211.732 261.797 210.308C261.571 210 261.552 209.588 261.732 209.251C263.266 206.375 264.365 203.364 265.103 200.392C265.938 197.028 266.329 193.665 266.376 190.508C266.385 189.953 266.833 189.5 267.388 189.5ZM259.526 222.587C261.947 224.772 266.22 227.5 270 229.358V232H272.462C271.341 236.237 268.347 239.662 264.988 243.202C264.804 243.397 264.428 243.638 264.057 243.668C263.86 243.685 263.665 243.641 263.5 243.5C262.974 243.05 262.431 242.565 261.873 242.045C257.456 237.927 253.618 232.074 248.96 223.489C248.697 223.005 248.884 222.402 249.362 222.128C251.171 221.091 252.809 219.921 254.286 218.646C254.721 218.271 255.382 218.315 255.758 218.749C256.34 219.419 256.96 220.091 257.615 220.756C258.223 221.375 258.861 221.988 259.526 222.587ZM215.5 170.5C215.334 170.32 215.234 170.081 215.234 169.821L215.492 156.828C215.497 156.584 215.59 156.348 215.761 156.174C220.903 150.954 230.486 151.591 239.599 152.197L239.602 152.197C240.281 152.242 240.958 152.287 241.631 152.33C242.722 152.398 242.943 153.765 242.68 154.327C241.856 156.087 240.909 157.98 239.833 159.91C239.021 161.371 238.068 162.976 236.979 164.542C236.987 164.447 236.992 164.351 236.995 164.254C236.998 164.169 237 164.085 237 164C237 160.134 233.866 157 230 157C229.782 157 229.567 157.01 229.354 157.029C229.135 157.049 228.92 157.079 228.707 157.119C228.553 157.148 228.401 157.182 228.25 157.22V162.25H223.22C223.077 162.809 223 163.396 223 164C223 167.866 226.134 171 230 171C230.092 171 230.184 170.998 230.276 170.995C230.384 170.99 230.491 170.984 230.598 170.975C230.674 170.968 230.75 170.96 230.825 170.952C230.236 171.337 229.627 171.671 229 171.944C227 172.812 223 173 221.5 173C220 173 217.407 172.127 216 171C215.847 170.878 215.651 170.665 215.5 170.5ZM195.5 159.634C195.5 159.292 195.324 158.976 195.041 158.785C189.276 154.901 187.52 149.778 187 144C186.981 143.795 186.919 143.608 186.824 143.434C186.7 143.206 186.52 143 186.306 142.809C185.994 142.529 185.61 142.279 185.228 142.03L185.228 142.03L185.226 142.029L185.222 142.026L184.97 141.861C184.22 141.364 182.383 141.117 181.746 141.754L177.293 146.208C177.105 146.395 177 146.645 177 146.91L177 157.685C177 157.894 177.065 158.092 177.187 158.261C181.801 164.664 187.07 169.909 193.94 174.875C194.594 175.348 195.5 174.876 195.5 174.069V159.634ZM243.352 209.511C243.222 210.383 242.105 210.548 241.631 209.805C231.466 193.885 218.948 188.043 206.789 182.368L206 182C205.815 181.914 205.631 181.827 205.448 181.74C204.545 181.309 204.81 180.051 205.81 180.036C213.61 179.919 225.802 181.349 235.655 190.217C242.6 196.467 244.228 203.635 243.352 209.511ZM245.602 171.944C245.4 171.873 245.188 171.875 244.995 171.94C244.957 171.953 244.92 171.968 244.884 171.985C244.832 172.01 244.783 172.039 244.736 172.073C244.692 172.104 244.65 172.138 244.612 172.176C244.568 172.219 244.528 172.267 244.492 172.318C242.931 174.554 241.193 176.755 239.27 178.809C238.852 179.255 238.912 179.969 239.398 180.34C240.394 181.1 241.377 181.913 242.345 182.784C248.294 188.139 251.529 194.156 252.846 200.05C253.066 201.036 254.423 201.221 254.74 200.261C254.764 200.188 254.788 200.115 254.812 200.041C254.83 199.986 254.847 199.931 254.865 199.875L254.963 199.559L255.027 199.343C255.047 199.278 255.065 199.213 255.084 199.148L255.101 199.089L255.12 199.024L255.139 198.956L255.198 198.743C255.268 198.491 255.334 198.237 255.397 197.983C256.32 194.262 256.538 190.509 256.281 187.28C256.016 183.953 255.281 181.588 254.642 180.451C252.679 176.962 250.577 174.676 248.28 173.235C247.463 172.723 246.576 172.289 245.602 171.944ZM30 115V139H32V141.594C36.8298 142.501 42.7332 144.567 47.9468 148.664C48.3889 149.011 49.031 148.946 49.3953 148.518C49.7678 148.081 50.1377 147.671 50.5005 147.289C50.6365 147.147 50.731 146.968 50.7605 146.773C50.8472 146.198 50.8838 145.585 50.8718 144.953C50.8596 144.295 50.7952 143.616 50.6807 142.938C50.5159 141.962 50.2664 141.106 50.0078 140.463C49.9788 140.391 49.9294 140.33 49.8677 140.284C49.835 140.26 49.7988 140.241 49.7603 140.227C49.0039 139.945 48.2493 139.602 47.5012 139.191C46.947 138.886 46.3962 138.545 45.8508 138.163C45.7041 138.06 45.5374 137.999 45.3657 137.977C45.1372 137.949 44.8997 137.991 44.688 138.101C43.5845 138.675 42.3301 139 41 139C36.5818 139 33 135.418 33 131C33 127.631 35.0828 124.748 38.0308 123.569C38.2236 123.492 38.3906 123.366 38.5144 123.208C38.6338 123.056 38.7126 122.873 38.7354 122.674C38.8208 121.927 38.9346 121.193 39.0586 120.477C39.2422 119.418 39.4548 118.351 39.6733 117.255L39.6763 117.24L39.6777 117.234L39.6795 117.226C40.0925 115.154 40.5253 112.983 40.8186 110.571C40.916 109.77 40.0496 109.223 39.3389 109.604C37.1138 110.796 34.6143 111.963 32 112.866V115H30ZM30 153H32V150.791C35.6841 151.707 39.9639 153.516 43.5625 156.742C43.8718 157.02 43.9619 157.463 43.8091 157.849C42.5481 161.034 41.6614 164.704 41.5034 168.808C41.1575 177.807 44.0352 184.557 46.8982 188.589C47.0984 188.871 47.1482 189.233 47.0225 189.555L46.9478 189.746L45.0964 189.4L44.6997 191.52C41.6807 191.176 38.6108 191 35.5 191C34.6064 191 33.7163 191.015 32.8298 191.044C32.241 191.063 31.6536 191.088 31.0679 191.12C30.49 191.151 30 190.694 30 190.115V153ZM58.5601 194.352C66.0132 196.576 73.0134 199.851 79.3887 204.005C79.7881 204.265 80.3157 204.213 80.6528 203.877L92.3723 192.15L91 190.777L91.981 189.796C90.9653 189.491 90.0308 189.157 89.1934 188.818C88.9016 188.7 88.6216 188.581 88.3542 188.462C88.0576 188.331 87.7764 188.199 87.5112 188.069C87.2217 187.928 86.8833 187.927 86.5925 188.066C83.9893 189.306 81.0757 190.001 78 190.001C66.9543 190.001 58 181.046 58 170.001C58 167.393 58.4988 164.903 59.4062 162.619C59.6396 162.031 59.3179 161.357 58.7112 161.177C58.1604 161.015 57.606 160.832 57.0488 160.63C56.3569 160.379 55.6611 160.099 54.9631 159.79C54.4697 159.572 53.8855 159.767 53.6582 160.256C52.5061 162.736 51.6289 165.742 51.4961 169.192C51.2004 176.882 54.1121 181.826 55.7549 183.696C57.3132 185.469 58.2517 188.3 57.1384 191.145L56.9536 191.617L59 192L58.5601 194.352ZM100.778 181L101.954 182.176L101.964 182.176L101.973 182.175C102.037 182.173 102.101 182.165 102.162 182.15C102.198 182.141 102.232 182.13 102.266 182.118C102.401 182.069 102.525 181.991 102.628 181.887L108.16 176.353C108.287 176.225 108.378 176.067 108.419 175.892C109.019 173.326 108.898 170.597 108.294 167.863C108.168 167.294 108.023 166.731 107.861 166.178C107.759 165.829 107.651 165.484 107.537 165.144C107.455 164.898 107.37 164.655 107.282 164.414C107.119 163.966 106.947 163.527 106.768 163.099C105.156 159.235 103.299 155.584 99.8572 153.873C99.3862 153.639 98.8103 153.865 98.6428 154.364C98.436 154.979 98.5217 155.252 98.75 155.979L98.7817 156.08L98.8215 156.208C98.8369 156.257 98.856 156.306 98.8784 156.353C101.701 162.199 102.8 170.51 98.9285 180.791C98.7078 181.377 99.0557 182.022 99.6555 182.122L100.778 181ZM120.789 163.715C120.651 163.854 120.479 163.945 120.297 163.985C120.068 164.035 119.822 164.002 119.608 163.877C117.225 162.486 115.309 160.841 113.766 159.031C113.706 158.962 113.657 158.883 113.619 158.8C112.414 156.163 111.038 153.909 109.811 152.249C109.756 152.176 109.712 152.095 109.679 152.01C109.259 150.9 108.913 149.774 108.628 148.646C107.189 142.948 107.342 137.635 107.455 133.702L107.477 132.921C107.483 132.69 107.568 132.475 107.709 132.303C107.757 132.245 107.811 132.192 107.87 132.144C107.944 132.085 108.027 132.036 108.116 131.998C108.471 131.847 108.813 131.689 109.141 131.523C109.167 131.51 109.194 131.499 109.22 131.49L109.26 131.478C109.326 131.461 109.394 131.454 109.461 131.459C109.534 131.464 109.605 131.483 109.673 131.515C116.403 134.746 122.798 140.64 127.269 145.956C127.419 146.134 127.5 146.36 127.5 146.593V156.587C127.5 156.852 127.395 157.106 127.207 157.293L120.789 163.715ZM93.324 122.912C87.1399 119.251 81.4402 115.25 76.2327 110.545C74.5889 109.059 73.0378 107.571 71.5703 106.066C71.1204 105.604 70.3538 105.672 70.083 106.257C69.3186 107.909 69 109.968 69 113C69 117.813 73.7004 125.895 89.2148 125.008C90.554 124.932 91.7864 124.847 92.9209 124.756C93.8892 124.678 94.1597 123.407 93.324 122.912ZM65.0715 128.82C63.426 128.102 61.9114 126.844 60.6506 125.164C58.51 122.311 56.8938 118.042 56.04 112.066C55.0728 105.294 53.676 101.417 52.4031 99.3424C51.7842 98.3336 51.2712 97.8775 50.9744 97.6813C50.7112 97.5074 50.5684 97.5001 50.5 97.5001C49.9949 97.5001 49.7083 97.5738 49.5723 97.6261C49.4645 97.6672 49.4376 97.6982 49.4198 97.7187L49.4192 97.7193C49.3701 97.777 48.9431 98.3497 48.9949 100.279C49.0576 101.07 49.1021 101.842 49.1306 102.597C49.1331 102.657 49.1548 102.714 49.1929 102.76L49.2461 102.825C49.2634 102.846 49.2756 102.869 49.2827 102.894C49.2903 102.921 49.2917 102.949 49.2871 102.976C49.2844 102.991 49.2798 103.006 49.2734 103.021L49.2703 103.027L49.2663 103.035C49.2616 103.044 49.2562 103.052 49.2502 103.06L49.2356 103.076L49.2217 103.088C49.196 103.109 49.1765 103.136 49.1646 103.167C49.1553 103.19 49.1506 103.215 49.1514 103.241C49.3264 109.896 48.2708 115.131 47.4707 119.098C47.2703 120.091 47.0862 121.005 46.9412 121.842C46.5237 124.253 46.4666 125.766 46.7722 126.996C47.0432 128.086 47.7034 129.349 49.5903 130.953C52.4233 133.36 55.4602 133.657 58.4001 132.968C61.1162 132.332 63.5935 130.864 65.1914 129.571L65.2236 129.542C65.2346 129.531 65.2451 129.519 65.2549 129.507C65.2683 129.49 65.2805 129.472 65.2913 129.454C65.3074 129.426 65.3208 129.396 65.3306 129.366C65.3745 129.23 65.3467 129.09 65.2695 128.981C65.2517 128.956 65.2314 128.932 65.2087 128.911C65.1694 128.874 65.1233 128.843 65.0715 128.82ZM60.0239 150.718C59.5078 151.117 59.5261 151.857 60.1292 152.107C64.8838 154.071 80.5352 156.388 89.5881 149.628C89.8491 149.433 89.9885 149.116 89.968 148.791C89.7441 145.2 89.4814 142.308 88.8105 138.493C88.6052 137.326 88.3997 136.222 88.2061 135.219C88.1853 135.112 88.1455 135.005 88.0903 134.912C85.9613 131.274 83.6735 130.993 80.2753 130.575L80.2749 130.575C78.9031 130.406 77.3503 130.215 75.5537 129.773C75.2258 129.692 74.8931 129.775 74.6453 129.969C74.5371 130.054 74.4451 130.16 74.3767 130.283C74.3562 130.32 74.3379 130.359 74.3218 130.399C74.3015 130.449 74.2852 130.502 74.2727 130.556C73.9783 131.853 73.6338 133.071 73.2363 134.224C73.7998 134.078 74.3909 134 75 134C78.866 134 82 137.134 82 141C82 141.299 81.9812 141.593 81.9448 141.882C81.9077 142.178 81.8523 142.467 81.7795 142.75H76.75V147.779C76.1907 147.923 75.6042 148 75 148C71.8406 148 69.1699 145.907 68.2993 143.032C66.1169 145.68 63.386 148.119 60.0239 150.718ZM124.712 193.759L138.846 179.624L140.243 181.02L142.23 179.033C144.316 181.229 146.811 183.621 149.597 185.905C152.382 188.188 155.547 190.438 158.963 192.273C159.292 192.45 159.5 192.791 159.5 193.164V196.966C159.5 197.218 159.406 197.45 159.25 197.629C159.101 197.799 158.896 197.922 158.661 197.968L158.486 198.002L158.352 198.03C158.187 198.065 158.022 198.101 157.858 198.139C157.807 198.151 157.755 198.163 157.704 198.175C157.641 198.19 157.578 198.206 157.514 198.221C157.359 198.259 157.205 198.299 157.051 198.34L156.973 198.36L156.831 198.399L156.638 198.453C156.516 198.488 156.395 198.523 156.274 198.56C155.629 198.754 154.954 198.303 154.836 197.64C153.958 192.729 149.664 189 144.5 189C138.701 189 134 193.701 134 199.5C134 200.19 134.067 200.866 134.194 201.519C134.293 202.027 134.038 202.548 133.563 202.752C133.231 202.896 132.893 203.049 132.551 203.213C132.16 203.4 131.692 203.328 131.386 203.021L124.313 195.949L125.608 194.655L124.712 193.759ZM98.5088 219.961L115.346 203.124L116.243 204.02L117.95 202.313L123.73 208.094C124.128 208.492 124.119 209.137 123.724 209.538C119.388 213.933 115.771 220.179 115.08 228.52C115.066 228.691 115.01 228.854 114.919 228.995C114.911 229.007 114.903 229.019 114.894 229.031L114.881 229.049C114.861 229.077 114.839 229.103 114.816 229.129L114.791 229.156L114.77 229.177L114.737 229.207L114.69 229.245C114.645 229.28 114.596 229.312 114.543 229.339L108.742 232.393L107.57 229.942L105.145 231.102C103.148 227.667 100.904 224.393 98.4378 221.305C98.1172 220.903 98.1458 220.325 98.5088 219.961ZM155.303 178.945C152.764 176.863 150.484 174.666 148.596 172.667L150.02 171.243L148.624 169.847L150.278 168.192C150.668 167.802 151.302 167.802 151.692 168.192L158.088 174.583C161.768 178.26 166.054 182.03 170.821 185.48C171.591 186.037 171.244 187.174 170.305 187.028C169.79 186.948 169.281 186.834 168.779 186.685C164.184 185.324 159.512 182.396 155.303 178.945ZM111.147 243.91C114.287 252.516 116 261.808 116 271.5L115.998 272.069C115.994 272.581 116.406 273 116.917 273H118V271H119.859C119.993 264.446 122.041 259.209 125.205 255.2C126.175 253.971 127.229 252.884 128.332 251.926C128.461 251.814 128.555 251.68 128.617 251.534C128.673 251.401 128.701 251.26 128.704 251.118C128.709 250.73 128.518 250.341 128.149 250.133C125.1 248.417 122.525 246.062 120.589 243.012C119.748 241.688 119.051 240.271 118.493 238.766C118.277 238.182 117.598 237.902 117.047 238.192L112.629 240.518L113.673 242.702L111.147 243.91ZM131 273H160V271H161.5V268.571C161.5 268.475 161.486 268.382 161.461 268.294C161.423 268.161 161.357 268.039 161.271 267.933C161.232 267.885 161.189 267.84 161.142 267.8C161.095 267.76 161.044 267.724 160.99 267.692C160.948 267.668 160.904 267.646 160.858 267.627C160.824 267.613 160.789 267.601 160.753 267.59C156.874 266.446 153.555 264.359 150.919 262.112C149.11 260.569 147.536 258.88 146.239 257.224C146.169 257.135 146.086 257.058 145.993 256.997C145.916 256.947 145.833 256.907 145.744 256.879L140.94 255.37C140.756 255.312 140.56 255.308 140.375 255.363C137.735 256.149 134.579 257.85 132.27 260.775C130.479 263.044 128.993 266.312 128.859 271H131V273ZM172 273H186V271H188.264C187.13 268.883 185.907 266.887 184.853 265.294C184.834 265.266 184.81 265.244 184.782 265.229C184.762 265.217 184.741 265.209 184.718 265.206C184.682 265.199 184.645 265.203 184.609 265.216C181.027 266.587 176.989 267.869 171.437 268.324C171.313 268.334 171.195 268.367 171.088 268.417C170.966 268.474 170.857 268.554 170.767 268.651C170.71 268.712 170.661 268.781 170.621 268.855C170.544 268.997 170.5 269.159 170.5 269.331V271H172V273ZM218 273C218.726 273 219.449 272.986 220.169 272.958C220.782 272.933 221.392 272.898 222 272.854V271H223.782L223.715 270.691C223.605 270.187 223.485 269.691 223.357 269.202L223.284 268.932L223.221 268.698L223.156 268.468L223.1 268.273L223 267.932C222.894 267.581 222.784 267.234 222.671 266.891C222.661 266.862 222.65 266.834 222.638 266.806L222.612 266.752C222.551 266.633 222.465 266.528 222.361 266.443C222.321 266.41 222.279 266.381 222.234 266.354C222.208 266.339 222.181 266.325 222.153 266.311C222.134 266.302 222.114 266.293 222.094 266.285C211.169 261.93 206.169 260.212 196.582 261.462C195.965 261.542 195.378 261.639 194.813 261.749C194.145 261.879 193.836 262.64 194.188 263.223C195.581 265.531 197.059 268.233 198.277 271H200V273H218ZM232.728 269.81C232.842 270.395 233.43 270.767 234 270.59L234.281 270.502L234.639 270.388C234.907 270.301 235.174 270.212 235.44 270.122C235.581 270.074 235.71 269.994 235.815 269.889C241.116 264.665 245.029 260.154 246.376 255.01C246.459 254.692 246.368 254.356 246.146 254.114C242.93 250.609 238.427 245.566 235.376 240.884C235.267 240.718 235.115 240.586 234.93 240.514C233.225 239.848 230.571 239.422 228.01 240.16C225.906 240.765 223.459 242.263 221.518 245.983C221.425 246.163 221.394 246.361 221.42 246.552C221.445 246.736 221.522 246.914 221.647 247.063C225.476 251.646 230.707 259.458 232.728 269.81ZM228.617 230.896C229.347 230.813 229.807 230.028 229.48 229.371C229.438 229.288 229.397 229.205 229.356 229.121C229.297 229.003 229.238 228.884 229.18 228.765C229.138 228.68 229.097 228.596 229.056 228.511C228.858 228.107 228.662 227.7 228.467 227.29C226.326 222.782 223.834 218.884 220.99 215.471C220.487 214.867 220.015 214.308 219.567 213.787L218.056 215.298L216.207 213.45L215.311 214.346C215.756 215.478 216 216.71 216 218C216 223.523 211.523 228 206 228C205.839 228 205.68 227.996 205.521 227.989C205.434 227.984 205.347 227.979 205.261 227.973L205.157 227.965C204.59 227.917 204.036 227.823 203.5 227.685V220.5H196.315C196.109 219.701 196 218.863 196 218C196 212.477 200.477 208 206 208C207.29 208 208.522 208.244 209.654 208.688L210.55 207.792L209 206.243L209.883 205.36C209.57 205.168 209.245 204.972 208.906 204.77C208.626 204.603 208.337 204.432 208.037 204.255C207.701 204.058 207.351 203.854 206.987 203.641L206.118 203.135C201.325 200.349 195.993 198.02 190.121 195.912C189.586 195.719 189.053 195.52 188.524 195.314L188.315 195.232C188.008 195.111 187.701 194.988 187.395 194.863L187.248 194.803L187.124 194.751C187.01 194.704 186.897 194.656 186.783 194.608C186.339 194.421 185.824 194.57 185.553 194.969L180.265 202.775C179.98 203.196 180.058 203.762 180.432 204.106C185.324 208.613 188.415 215.046 188.498 222.202C188.499 222.288 188.511 222.375 188.534 222.458C189.939 227.592 191.872 231.332 194.737 234.074C198.277 237.463 203.862 239.9 213.481 240.735C213.864 240.769 214.232 240.575 214.433 240.247C217.372 235.473 221.316 232.72 225.521 231.51C225.847 231.417 226.171 231.333 226.495 231.258C227.209 231.094 227.918 230.975 228.617 230.896ZM212.625 250.194C212.449 249.878 212.138 249.651 211.779 249.615C201.486 248.598 193.922 245.753 188.514 240.576C188.474 240.538 188.434 240.5 188.395 240.461L188.306 240.375L188.191 240.262L188.077 240.148L187.904 239.974C187.793 239.86 187.662 239.777 187.522 239.724C187.483 239.71 187.444 239.698 187.405 239.688C187.378 239.682 187.351 239.676 187.324 239.671C187.298 239.667 187.272 239.664 187.246 239.662C187.219 239.659 187.191 239.658 187.163 239.657C186.945 239.655 186.725 239.72 186.538 239.857C185.489 240.625 184.289 241.423 182.951 242.202C178.285 244.917 171.757 247.5 164.002 247.5C163.953 247.5 163.904 247.499 163.855 247.499L163.741 247.5L163.665 247.5H163.5C161.553 247.5 159.658 247.277 157.839 246.856C157.322 246.737 156.791 247.019 156.624 247.522L154.889 252.727C154.773 253.073 154.855 253.456 155.11 253.718C155.173 253.783 155.236 253.847 155.3 253.911L155.366 253.978C155.53 254.141 155.698 254.304 155.869 254.466C156.155 254.735 156.451 255.001 156.758 255.263C158.845 257.042 161.219 258.434 163.786 259.089C164.464 259.262 165.047 258.637 165.011 257.938L165.006 257.816L165.002 257.716C165.001 257.645 165 257.572 165 257.5C165 252.806 168.806 249 173.5 249C177.436 249 180.746 251.675 181.714 255.306C181.884 255.943 182.558 256.355 183.171 256.11L183.356 256.036L183.363 256.033L183.367 256.032L183.373 256.03C186.694 254.7 190.496 253.179 195.418 252.538C203.2 251.523 205.614 252.307 211.272 254.146L211.273 254.146L211.781 254.312C212.138 254.427 212.534 254.336 212.772 254.046C213.404 253.28 214.117 252.089 213.509 251.423C213.171 251.052 212.873 250.639 212.625 250.194ZM125.963 231.564C126.315 234.314 127.11 236.492 128.187 238.188C130.011 241.062 133 243.112 137.477 244.107C141.224 244.94 143.648 243.797 145.502 242.023C145.649 241.882 145.794 241.736 145.935 241.586C146.296 241.202 146.249 240.602 145.874 240.229C145.602 239.958 145.336 239.682 145.076 239.399C144.86 239.163 144.648 238.923 144.441 238.68L144.405 238.639L144.383 238.617L144.351 238.586L144.341 238.577L144.333 238.57L144.317 238.556C144.308 238.549 144.299 238.541 144.29 238.534C141.473 236.327 138.707 233.073 136.506 228.305C134.626 224.231 134.092 220.433 134.342 217.024C134.407 216.136 133.418 215.526 132.748 216.113C129.195 219.227 125.946 224.253 125.963 231.564ZM177 222C177 229.732 170.732 236 163 236C160.377 236 157.923 235.279 155.825 234.024L157.312 232.537C158.152 232.837 159.057 233 160 233C164.418 233 168 229.418 168 225C168 224.593 167.97 224.193 167.911 223.803C167.87 223.53 167.816 223.263 167.748 223H162V217.252C161.782 217.196 161.561 217.149 161.336 217.111C160.902 217.038 160.455 217 160 217C155.582 217 152 220.582 152 225C152 225.972 152.173 226.903 152.49 227.764L151.015 229.24C149.736 227.127 149 224.649 149 222C149 214.268 155.268 208 163 208C170.732 208 177 214.268 177 222ZM113 31H133V33H135.5V34.9648C135.5 35.4072 135.209 35.7983 134.782 35.916C127.49 37.9233 118.356 38.1143 111.435 37.7344C110.908 37.7056 110.5 37.2681 110.5 36.7407V33H113V31ZM85 31H99V33H101.5V36.0801C101.5 36.2129 101.474 36.3394 101.427 36.4556C101.36 36.6201 101.251 36.7637 101.113 36.8726C101.084 36.8955 101.054 36.9165 101.023 36.936C100.987 36.9585 100.95 36.9785 100.911 36.9966C100.798 37.0488 100.674 37.0815 100.543 37.0903C96.7146 37.3398 92.1191 38.2056 88.2737 40.8726C82.9116 44.5918 80.1479 50.9399 81.0232 59.9819C81.0352 60.1074 81.0427 60.2251 81.0466 60.335C81.0525 60.4961 81.0505 60.6401 81.043 60.769C81.032 60.9536 80.4765 61 80 61C78.5 61 74.4565 59.8862 70.9668 54.7578C68.3103 50.8535 65.3108 45.5 62.0405 38.3228C61.9231 38.0654 61.9248 37.7847 62.0222 37.5425L62.0442 37.4917L62.0664 37.4478L62.0776 37.4272C62.1128 37.3647 62.1548 37.3057 62.2034 37.252C62.2981 37.1475 62.4172 37.0615 62.5571 37.0039C68.8628 34.4229 77.7651 31 85 31ZM147.389 135.025C142.06 129.861 136.169 124.153 129.194 119.29C128.571 118.854 128.628 117.914 129.343 117.655C129.412 117.629 129.483 117.605 129.553 117.581L129.718 117.527C129.979 117.442 130.246 117.368 130.518 117.303C132.815 116.76 135.94 116.863 139.943 119.956C144.699 123.632 150.164 127.966 154.958 131.82L154 132.777L155.402 134.18L151.689 137.824C151.505 138.004 151.269 138.1 151.031 138.11C151.012 138.111 150.993 138.111 150.974 138.111C150.961 138.11 150.947 138.11 150.934 138.109C150.85 138.104 150.768 138.09 150.687 138.064C150.629 138.045 150.573 138.022 150.518 137.993C150.441 137.951 150.368 137.898 150.302 137.835C149.393 136.966 148.47 136.072 147.53 135.162L147.529 135.16L147.389 135.025ZM179.124 110.901L165.272 124.495L163.778 123L162.07 124.708C157.029 120.647 151.146 115.976 146.057 112.043C145.684 111.755 145.311 111.48 144.939 111.22C144.666 111.029 144.5 110.719 144.5 110.386V106.976C144.5 106.431 144.936 105.989 145.48 105.957C146.281 105.91 147.073 105.826 147.852 105.705C148.15 105.659 148.445 105.608 148.739 105.551C149.075 105.487 149.409 105.416 149.74 105.338C150.101 105.253 150.459 105.16 150.814 105.06C151.405 104.893 152 105.386 152 106C152 110.971 156.029 115 161 115C165.97 115 170 110.971 170 106C170 104.216 169.481 102.553 168.585 101.154C168.402 100.868 168.351 100.513 168.473 100.196L169.032 98.7427C169.226 98.2388 169.785 97.9795 170.294 98.1567L170.708 98.3008C171.017 98.4082 171.252 98.6606 171.35 98.9722C172.057 101.207 173.212 103.144 174.839 104.722C175.971 105.82 177.227 106.641 178.527 107.25L177 108.777L179.124 110.901ZM205.375 85.1416L192.101 98.1675C191.959 98.3066 191.779 98.4009 191.583 98.436C189.534 98.7993 187.381 99.021 185.408 98.8345C183.504 98.6543 182.409 98.1333 181.801 97.5435C181.414 97.1675 180.864 96.4185 180.622 94.8062C180.611 94.7329 180.61 94.6597 180.617 94.5874C180.619 94.5607 180.623 94.534 180.628 94.5075L180.632 94.4857L180.637 94.4634C180.672 94.3145 180.743 94.1743 180.842 94.0542C184.885 89.1436 187.149 83.6948 187.66 78.1943C187.687 77.9053 187.833 77.6387 188.068 77.4688C190.646 75.6118 193.287 74.2617 195.791 73.3076L196.547 75.0244L198.584 74.127C200.635 77.5156 202.929 80.7407 205.442 83.7783C205.776 84.1816 205.749 84.7744 205.375 85.1416ZM192.887 62.7749L191.435 63.4141L192.16 65.0625C190.657 65.6538 189.121 66.3564 187.578 67.1855C187.018 67.4858 186.317 67.2158 186.093 66.6221C184.815 63.2471 182.84 60.1211 180.267 57.4048C179.212 56.2915 178.075 55.3589 176.883 54.5835C176.186 54.1294 176.206 53.0337 176.931 52.624C180.466 50.6245 183.241 47.9077 184.7 44.1152C185.696 41.5254 185.713 38.7725 185.39 36.3506C185.208 34.9883 184.906 33.6279 184.534 32.3135C184.35 31.6606 184.831 31 185.509 31H186.625C186.839 31 187.011 31.1748 187.008 31.3882L187.002 31.8799L187 32.2593L187 32.5C187 43.2085 189.091 53.4292 192.887 62.7749ZM144 56C135.042 56 127.184 60.7119 122.77 67.792C122.389 68.4023 121.507 68.4771 121.042 67.9292C117.375 63.6177 113.071 60.4141 108.737 58.0913C103.084 55.0625 97.2986 53.4814 92.615 52.8389C91.9883 52.7529 91.5752 52.1221 91.855 51.5547C92.1895 50.877 92.583 50.3447 92.9946 49.918C93.2319 49.6714 93.593 49.6001 93.9216 49.6953C103.51 52.4756 110.573 52.7207 116.072 51.6597C120.451 50.8145 123.61 49.1553 125.779 47.8711C125.876 47.8135 126 47.8867 126 48C126 51.8662 129.134 55 133 55C136.866 55 140 51.8662 140 48C140 47.52 139.952 47.0518 139.86 46.5991C139.709 45.8589 140.249 45.0713 140.993 45.1992C144.615 45.8237 146.501 47.8208 147.556 49.9805C148.462 51.8359 148.748 53.8188 148.715 55.3755C148.702 55.9497 148.163 56.3384 147.594 56.2563C147.115 56.1875 146.631 56.1318 146.143 56.0903C145.437 56.0308 144.722 56 144 56ZM169 81C169 73.5278 165.722 66.8218 160.525 62.2402C159.892 61.6816 160.12 60.6177 160.954 60.4844C161.475 60.4014 162.006 60.3335 162.545 60.2842C162.932 60.249 163.324 60.2236 163.718 60.209C167.775 60.0581 171.338 61.0669 173.733 63.5947C176.982 67.0239 178.714 71.231 178.771 75.5591C178.824 79.5625 177.438 83.9722 174.017 88.187C173.757 88.5068 173.323 88.623 172.935 88.4878L169.161 87.1753C168.675 87.0063 168.399 86.4966 168.501 85.9927C168.828 84.3794 169 82.71 169 81ZM158 81C158 88.7319 151.732 95 144 95C136.268 95 130 88.7319 130 81C130 73.2681 136.268 67 144 67C147.194 67 150.138 68.0698 152.494 69.8701L150.54 71.8237C149.473 71.2964 148.271 71 147 71C142.582 71 139 74.5815 139 79C139 79.6904 139.087 80.3608 139.252 81H145V86.748C145.411 86.854 145.836 86.9277 146.27 86.9668C146.51 86.9888 146.754 87 147 87C151.418 87 155 83.4185 155 79C155 78.3701 154.927 77.7568 154.79 77.1689L156.75 75.2085C157.553 76.9736 158 78.9346 158 81ZM75.7593 76.123C79.0422 82.3857 82.6064 87.4092 86.563 91.6797L88.2427 90L89.793 91.5503L90.6887 90.6543C90.2441 89.5225 90 88.2896 90 87C90 81.4771 94.4771 77 100 77C100.422 77 100.837 77.0259 101.245 77.0767C101.672 77.1299 102.091 77.21 102.5 77.3149V84.5H109.685C109.8 84.9458 109.885 85.4033 109.937 85.8706C109.958 86.0586 109.974 86.2485 109.985 86.4395C109.989 86.5122 109.992 86.5854 109.994 86.6587C109.998 86.772 110 86.8857 110 87C110 92.5229 105.523 97 100 97C99.4304 97 98.8721 96.9521 98.3286 96.8608C98.1626 96.833 97.998 96.8008 97.835 96.7646C97.3228 96.6519 96.8252 96.4995 96.3457 96.3115L95.45 97.207L97.2983 99.0557L96.1526 100.202C101.391 104.076 107.462 107.581 114.73 111.23C114.908 111.32 115.104 111.352 115.293 111.33C115.512 111.304 115.721 111.207 115.885 111.044L126.566 100.362C126.972 99.9565 126.952 99.2949 126.542 98.8945C122.857 95.2993 120.279 90.5752 119.365 85.2817C116.414 75.9673 110.354 70.3032 104.013 66.9058C99.6682 64.5771 95.2695 63.3633 91.832 62.8301C91.7993 62.8252 91.7668 62.8218 91.7346 62.8198C91.7048 62.8184 91.6753 62.8184 91.646 62.8193C91.5225 62.8237 91.4033 62.8525 91.2935 62.9014C91.166 62.9575 91.0508 63.0405 90.9546 63.1436C90.8909 63.2119 90.8354 63.2891 90.7903 63.3735C90.7451 63.4575 90.7102 63.5488 90.6875 63.645C90.2305 65.585 89.3027 67.4629 87.7131 68.9385C86.5137 70.0513 85.1643 70.7417 83.7476 71.0737C83.717 71.0811 83.6997 71.1133 83.7104 71.1426L83.7131 71.1528C83.7168 71.1768 83.7041 71.2007 83.6807 71.209C82.1184 71.7881 79.3408 72.9712 76.1362 74.8184C75.6802 75.0811 75.5149 75.6572 75.7593 76.123ZM225 145C230.523 145 235 140.523 235 135C235 129.477 230.523 125 225 125C219.477 125 215 129.477 215 135C215 140.523 219.477 145 225 145ZM79 180C84.5229 180 89 175.522 89 170C89 164.477 84.5229 160 79 160C73.4771 160 69 164.477 69 170C69 175.522 73.4771 180 79 180Z" fill="#202D37"/>
<circle cx="27" cy="27" r="15" fill="#34414D"/>
<path fill-rule="evenodd" clip-rule="evenodd" d="M23.3438 28.6114C22.5628 29.3924 22.5628 30.6587 23.3438 31.4398L26.1723 34.2682C26.9533 35.0493 28.2196 35.0493 29.0007 34.2682L35.3647 27.9043C36.1457 27.1232 36.1457 25.8569 35.3647 25.0758L32.5362 22.2474C31.7552 21.4664 30.4889 21.4664 29.7078 22.2474L28.9524 23.0028C29.599 23.6379 30.0001 24.5221 30.0001 25.5C30.0001 27.433 28.4331 29 26.5001 29C25.5222 29 24.6379 28.5989 24.0029 27.9523L23.3438 28.6114Z" fill="#202D37"/>
<path fill-rule="evenodd" clip-rule="evenodd" d="M36.6421 15.3311C36.6421 15.3311 40.9355 19.4424 49.3418 17.3867L42.7734 25.854L34.583 22.5801L36.6421 15.3311Z" fill="#34414D"/>
<path fill-rule="evenodd" clip-rule="evenodd" d="M16.6152 51.1056C16.6152 51.1056 20.9835 43.3785 17.8133 38.594L27 42.139L22.8675 53.3596L16.6152 51.1056Z" fill="#34414D"/>
<circle cx="277" cy="277" r="15" transform="rotate(-180 277 277)" fill="#34414D"/>
<path fill-rule="evenodd" clip-rule="evenodd" d="M280.656 275.389C281.437 274.608 281.437 273.341 280.656 272.56L277.828 269.732C277.047 268.951 275.78 268.951 274.999 269.732L268.635 276.096C267.854 276.877 267.854 278.143 268.635 278.924L271.464 281.753C272.245 282.534 273.511 282.534 274.292 281.753L275.048 280.997C274.401 280.362 274 279.478 274 278.5C274 276.567 275.567 275 277.5 275C278.478 275 279.362 275.401 279.997 276.048L280.656 275.389Z" fill="#202D37"/>
<path fill-rule="evenodd" clip-rule="evenodd" d="M267.358 288.669C267.358 288.669 263.064 284.558 254.658 286.613L261.227 278.146L269.417 281.42L267.358 288.669Z" fill="#34414D"/>
<path fill-rule="evenodd" clip-rule="evenodd" d="M287.385 252.894C287.385 252.894 283.016 260.621 286.187 265.406L277 261.861L281.133 250.64L287.385 252.894Z" fill="#34414D"/>
<path fill-rule="evenodd" clip-rule="evenodd" d="M258.876 32.9725C258.876 34.673 260.258 36.0192 261.923 36.0192C263.623 36.0192 265.005 34.673 264.969 32.9725C264.969 31.272 263.623 29.9258 261.923 29.9258C260.222 29.9258 258.876 31.272 258.876 32.9725Z" fill="#202D37"/>
<path fill-rule="evenodd" clip-rule="evenodd" d="M274.216 42.1834C274.216 40.4829 272.834 39.1367 271.169 39.1367C269.469 39.1367 268.122 40.4829 268.122 42.1834C268.122 43.8839 269.504 45.2301 271.169 45.2301C272.834 45.2301 274.18 43.8485 274.216 42.1834Z" fill="#202D37"/>
<path fill-rule="evenodd" clip-rule="evenodd" d="M282.577 45.2659L281.903 44.5927L282.577 43.9196L283.25 44.5927L282.577 45.2659ZM282.931 80.1612V69.8874C284.454 69.7812 285.694 68.5058 285.694 66.9116C285.694 65.3528 284.49 64.042 282.931 63.9357V45.8681L284.064 44.7345L282.647 43.3174L281.23 44.7345L282.364 45.8681V63.9357C280.841 64.042 279.601 65.3528 279.601 66.9116C279.601 68.4704 280.805 69.7812 282.364 69.8874V80.1612C279.246 80.2675 276.802 82.8536 276.802 85.9712C276.802 89.1596 279.424 91.7812 282.612 91.7812C284.171 91.7812 285.588 91.1789 286.757 90.1161C287.891 89.0179 288.493 87.5299 288.493 85.9712C288.493 82.8536 286.013 80.2675 282.931 80.1612Z" fill="#202D37"/>
<path fill-rule="evenodd" clip-rule="evenodd" d="M259.549 20.9274L260.222 21.6005L259.549 22.2736L258.876 21.6005L259.549 20.9274ZM223.981 21.9194H234.254C234.361 23.4427 235.671 24.6826 237.23 24.6826C238.754 24.6826 240.1 23.4781 240.206 21.9194H258.274L259.407 23.053L260.824 21.6359L259.407 20.2189L258.274 21.3525H240.206C240.1 19.8292 238.789 18.5892 237.23 18.5892C235.671 18.5892 234.361 19.7937 234.254 21.3525H223.981C223.874 18.235 221.288 15.7905 218.171 15.7905C214.982 15.7905 212.361 18.4121 212.361 21.6005C212.361 24.7889 214.982 27.4105 218.171 27.4105C221.288 27.4105 223.803 24.8952 223.981 21.9194Z" fill="#202D37"/>
<path fill-rule="evenodd" clip-rule="evenodd" d="M271.417 29.5361C271.417 31.3074 272.869 32.7245 274.605 32.7245C276.377 32.7245 277.794 31.3074 277.794 29.5361C277.794 27.7647 276.377 26.3477 274.605 26.3477C272.834 26.3477 271.417 27.7647 271.417 29.5361Z" fill="#202D37"/>
<path fill-rule="evenodd" clip-rule="evenodd" d="M268.618 25.5328H269.823C268.902 26.631 268.37 28.0127 268.37 29.536C268.37 31.0239 268.937 32.441 269.823 33.5392H268.618C267.839 32.3702 267.449 30.9531 267.378 29.536C267.378 28.1189 267.839 26.7373 268.618 25.5328ZM270.602 34.2478C271.7 35.2043 273.082 35.7357 274.605 35.7357C276.129 35.7357 277.51 35.2043 278.573 34.3186V35.5231C277.404 36.3379 276.022 36.7631 274.605 36.7631C273.188 36.7631 271.807 36.3379 270.602 35.5231V34.2478ZM278.325 29.536C278.325 31.5908 276.66 33.2558 274.605 33.2558C272.551 33.2558 270.886 31.5908 270.886 29.536C270.886 27.4813 272.551 25.8162 274.605 25.8162C276.66 25.8162 278.325 27.4813 278.325 29.536ZM270.602 23.5489C271.771 22.7695 273.188 22.309 274.605 22.2381C275.987 22.2381 277.369 22.6987 278.573 23.478V24.6826C277.51 23.7969 276.129 23.2655 274.605 23.2655C273.117 23.2655 271.7 23.8677 270.602 24.7534V23.5489ZM279.459 25.5328H280.663C281.478 26.7019 281.903 28.1189 281.903 29.536C281.903 30.9531 281.478 32.3347 280.663 33.5392H279.459C280.344 32.441 280.876 31.0239 280.876 29.536C280.876 28.0481 280.344 26.631 279.459 25.5328ZM268.335 34.0706H270.071V35.842L270.177 35.9128C271.488 36.7985 273.011 37.2945 274.605 37.2945C276.2 37.2945 277.723 36.7985 279.034 35.8774L279.14 35.8065V34.0706H280.876L280.947 33.9644C281.832 32.6536 282.328 31.1302 282.328 29.536C282.328 27.9418 281.832 26.4185 280.947 25.1077L280.876 25.0014H279.14V23.2655L279.034 23.1946C277.723 22.309 276.2 21.813 274.605 21.813C273.011 21.813 271.488 22.309 270.177 23.1946L270.071 23.2655V25.0014H268.335L268.264 25.1077C267.378 26.4185 266.882 27.9418 266.882 29.536C266.882 31.1302 267.378 32.6536 268.264 33.9644L268.335 34.0706Z" fill="#202D37"/>
<path fill-rule="evenodd" clip-rule="evenodd" d="M277.794 29.5362C277.794 31.3075 276.377 32.7246 274.606 32.7246C272.87 32.7246 271.417 31.3075 271.417 29.5362C271.417 27.7649 272.834 26.3478 274.606 26.3478C276.377 26.3478 277.794 27.7649 277.794 29.5362ZM270.886 29.5362C270.886 31.591 272.551 33.256 274.606 33.256C276.66 33.256 278.325 31.591 278.325 29.5362C278.325 27.4815 276.66 25.8164 274.606 25.8164C272.551 25.8164 270.886 27.4815 270.886 29.5362Z" fill="#202D37"/>
<mask id="mask1_5742_287980" style="mask-type:luminance" maskUnits="userSpaceOnUse" x="204" y="12" width="88" height="89">
<path fill-rule="evenodd" clip-rule="evenodd" d="M204 100.071H292V12H204V100.071Z" fill="white"/>
</mask>
<g mask="url(#mask1_5742_287980)">
<path fill-rule="evenodd" clip-rule="evenodd" d="M260.966 43.1756H261.923V42.2191H260.966V43.1756ZM244.882 62.2352C245.697 62.2352 246.441 61.9164 247.008 61.3496C248.142 60.1805 248.177 58.4446 247.185 57.2401L260.683 43.7425H262.312V41.7231H260.293V43.3528L246.796 56.8504C246.264 56.3898 245.591 56.1418 244.882 56.1418C244.068 56.1418 243.324 56.4607 242.757 57.0275C241.623 58.1611 241.588 59.8971 242.58 61.1016L236.026 67.6555C233.758 65.5653 230.18 65.6362 227.984 67.8326C225.717 70.1 225.717 73.8198 227.984 76.0871C229.153 77.2562 230.641 77.823 232.129 77.823C233.652 77.823 235.14 77.2562 236.168 76.1225C238.364 73.926 238.435 70.3834 236.345 68.0806L242.899 61.5267C243.501 61.9872 244.139 62.2352 244.882 62.2352Z" fill="#202D37"/>
<path fill-rule="evenodd" clip-rule="evenodd" d="M281.018 97.6618L282.612 96.0676L284.206 97.6618C283.143 97.7681 282.081 97.7681 281.018 97.6618ZM225.15 81.2947C224.264 80.6216 223.52 79.8422 222.847 78.992H225.15V81.2947ZM206.551 12.496C205.523 13.913 204.744 15.5072 204.248 17.2432L204.213 17.4203L205.98 19.1874L205.948 19.4042C205.807 20.1127 205.736 20.8567 205.736 21.6006C205.736 22.2738 205.807 22.9469 205.913 23.6554L204 25.5684L204.035 25.7456C204.886 28.7214 206.586 31.2721 208.96 33.256V34.5314C208.96 39.1723 209.491 43.8486 210.554 48.3478L208.889 51.2528L211.829 52.9179C213.388 57.7713 215.549 62.4122 218.242 66.6989C217.71 68.2576 217.427 69.9227 217.427 71.5878C217.427 74.1385 218.064 76.6892 219.304 78.8857L219.375 78.992H222.138C222.989 80.161 223.981 81.153 225.114 81.9678V84.7311L225.221 84.8019C228.905 86.8567 233.475 87.2109 237.443 85.8647C241.729 88.5572 246.335 90.6828 251.224 92.2415L252.889 95.182L255.829 93.5169C260.754 94.6506 265.855 95.182 270.886 95.0757C272.87 97.4493 275.456 99.1852 278.396 100L278.573 100.035L280.415 98.0515C281.802 98.2595 283.188 98.2623 284.575 98.0303L286.615 100.071L286.792 100.035C288.528 99.5395 290.087 98.7601 291.504 97.7327V97.8287L291.929 97.4273V97.3076L292 96.6699V93.4815L291.539 93.9775C289.753 95.8338 287.378 97.1329 284.825 97.6073L282.47 95.2528L280.203 97.5201C277.971 97.095 275.881 96.0322 274.145 94.4734L274.074 94.4026H273.968C272.976 94.438 272.055 94.4734 271.098 94.5089C270.567 93.8712 270.106 93.1272 269.681 92.3833L269.61 92.277H269.433C265.891 92.2415 262.348 91.9227 258.805 91.2496H258.734L253.066 94.4734L249.771 88.7697L249.7 88.7343C246.335 87.4944 243.111 85.9356 240.064 84.1288L239.958 84.058L239.852 84.1288C239.072 84.5539 238.293 84.9436 237.478 85.2271C236.663 84.7311 235.849 84.1643 235.069 83.6329L234.998 83.562L234.892 83.5974C231.597 84.2351 228.267 83.5266 225.61 81.6844V78.4605H222.386C221.005 76.4058 220.261 74.0322 220.261 71.5169C220.261 70.7375 220.296 69.9581 220.473 69.1787L220.509 69.0725L220.438 69.0016C219.907 68.2222 219.375 67.4074 218.844 66.5926C219.127 65.7778 219.481 64.963 219.942 64.219L220.013 64.1127L219.942 64.0064C218.135 60.9597 216.576 57.7359 215.337 54.3704L215.301 54.2995L209.597 51.0048L212.821 45.3366V45.2657C212.148 41.723 211.794 38.1095 211.794 34.6023V34.4251L211.617 34.3897C210.837 34 210.164 33.504 209.456 32.9726C209.456 32.0161 209.491 31.0596 209.562 30.1031V29.9968L209.491 29.9259C207.932 28.2609 206.87 26.1353 206.444 23.868L208.712 21.6006L206.626 19.5147L206.657 19.2979C207.118 16.7118 208.428 14.2673 210.341 12.4605L210.837 12H207.614L206.551 12.496Z" fill="#202D37"/>
</g>
<path fill-rule="evenodd" clip-rule="evenodd" d="M45.124 271.098C45.124 269.398 43.7424 268.052 42.0773 268.052C40.3768 268.052 38.9952 269.398 39.0306 271.098C39.0306 272.799 40.3768 274.145 42.0773 274.145C43.7778 274.145 45.124 272.799 45.124 271.098Z" fill="#202D37"/>
<path fill-rule="evenodd" clip-rule="evenodd" d="M29.7843 261.887C29.7843 263.588 31.1659 264.934 32.831 264.934C34.5315 264.934 35.8777 263.588 35.8777 261.887C35.8777 260.187 34.496 258.841 32.831 258.841C31.1659 258.841 29.8197 260.222 29.7843 261.887Z" fill="#202D37"/>
<path fill-rule="evenodd" clip-rule="evenodd" d="M21.4234 258.805L22.0965 259.478L21.4234 260.151L20.7503 259.478L21.4234 258.805ZM21.0692 223.91V234.183C19.5458 234.29 18.3059 235.565 18.3059 237.159C18.3059 238.718 19.5104 240.029 21.0692 240.135L21.0692 258.203L19.9355 259.336L21.3526 260.753L22.7697 259.336L21.636 258.203L21.636 240.135C23.1594 240.029 24.3993 238.718 24.3993 237.159C24.3993 235.6 23.1948 234.29 21.636 234.183V223.91C24.7536 223.803 27.198 221.217 27.198 218.1C27.198 214.911 24.5764 212.29 21.388 212.29C19.8292 212.29 18.4122 212.892 17.2431 213.955C16.1094 215.053 15.5072 216.541 15.5072 218.1C15.5072 221.217 17.987 223.803 21.0692 223.91Z" fill="#202D37"/>
<path fill-rule="evenodd" clip-rule="evenodd" d="M44.451 283.143L43.7779 282.47L44.451 281.797L45.1241 282.47L44.451 283.143ZM80.0194 282.151H69.7457C69.6394 280.628 68.3286 279.388 66.7698 279.388C65.2465 279.388 63.9003 280.593 63.794 282.151H45.7264L44.5927 281.018L43.1756 282.435L44.5927 283.852L45.7264 282.718H63.794C63.9003 284.242 65.2111 285.482 66.7698 285.482C68.3286 285.482 69.6394 284.277 69.7457 282.718H80.0194C80.1257 285.836 82.7119 288.28 85.8294 288.28C89.0178 288.28 91.6394 285.659 91.6394 282.47C91.6394 279.282 89.0178 276.66 85.8294 276.66C82.7119 276.66 80.1966 279.176 80.0194 282.151Z" fill="#202D37"/>
<path fill-rule="evenodd" clip-rule="evenodd" d="M32.583 274.535C32.583 272.763 31.1305 271.346 29.3946 271.346C27.6233 271.346 26.2062 272.763 26.2062 274.535C26.2062 276.306 27.6233 277.723 29.3946 277.723C31.1659 277.723 32.583 276.306 32.583 274.535Z" fill="#202D37"/>
<path fill-rule="evenodd" clip-rule="evenodd" d="M35.3818 278.538H34.1773C35.0984 277.44 35.6298 276.058 35.6298 274.535C35.6298 273.047 35.0629 271.63 34.1773 270.532H35.3818C36.1612 271.701 36.5508 273.118 36.6217 274.535C36.6217 275.952 36.1612 277.333 35.3818 278.538ZM33.3979 269.823C32.2996 268.867 30.918 268.335 29.3946 268.335C27.8713 268.335 26.4897 268.867 25.4269 269.752V268.548C26.5959 267.733 27.9776 267.308 29.3946 267.308C30.8117 267.308 32.1934 267.733 33.3979 268.548V269.823ZM25.6748 274.535C25.6748 272.48 27.3399 270.815 29.3946 270.815C31.4494 270.815 33.1145 272.48 33.1145 274.535C33.1145 276.59 31.4494 278.255 29.3946 278.255C27.3399 278.255 25.6748 276.59 25.6748 274.535ZM33.3979 280.522C32.2288 281.301 30.8117 281.762 29.3946 281.833C28.013 281.833 26.6314 281.372 25.4269 280.593V279.388C26.4897 280.274 27.8713 280.805 29.3946 280.805C30.8826 280.805 32.2996 280.203 33.3979 279.317V280.522ZM24.5412 278.538H23.3367C22.5219 277.369 22.0967 275.952 22.0967 274.535C22.0967 273.118 22.5219 271.736 23.3367 270.532H24.5412C23.6555 271.63 23.1241 273.047 23.1241 274.535C23.1241 276.023 23.6555 277.44 24.5412 278.538ZM35.6652 270H33.9293V268.229L33.823 268.158C32.5122 267.272 30.9889 266.776 29.3946 266.776C27.8004 266.776 26.2771 267.272 24.9663 268.193L24.86 268.264V270H23.1241L23.0533 270.106C22.1676 271.417 21.6716 272.941 21.6716 274.535C21.6716 276.129 22.1676 277.652 23.0533 278.963L23.1241 279.069H24.86V280.805L24.9663 280.876C26.2771 281.762 27.8004 282.258 29.3946 282.258C30.9889 282.258 32.5122 281.762 33.823 280.876L33.9293 280.805V279.069H35.6652L35.736 278.963C36.6217 277.652 37.1177 276.129 37.1177 274.535C37.1177 272.941 36.6217 271.417 35.736 270.106L35.6652 270Z" fill="#202D37"/>
<path fill-rule="evenodd" clip-rule="evenodd" d="M26.206 274.535C26.206 272.763 27.6231 271.346 29.3945 271.346C31.1304 271.346 32.5829 272.763 32.5829 274.535C32.5829 276.306 31.1658 277.723 29.3945 277.723C27.6231 277.723 26.206 276.306 26.206 274.535ZM33.1143 274.535C33.1143 272.48 31.4492 270.815 29.3945 270.815C27.3397 270.815 25.6746 272.48 25.6746 274.535C25.6746 276.589 27.3397 278.254 29.3945 278.254C31.4492 278.254 33.1143 276.589 33.1143 274.535Z" fill="#202D37"/>
<mask id="mask2_5742_287980" style="mask-type:luminance" maskUnits="userSpaceOnUse" x="12" y="204" width="88" height="89">
<path fill-rule="evenodd" clip-rule="evenodd" d="M100 204H12L12 292.071H100L100 204Z" fill="white"/>
</mask>
<g mask="url(#mask2_5742_287980)">
<path fill-rule="evenodd" clip-rule="evenodd" d="M43.0338 260.895H42.0773V261.852H43.0338V260.895ZM59.1175 241.836C58.3027 241.836 57.5587 242.154 56.9919 242.721C55.8583 243.89 55.8228 245.626 56.8148 246.831L43.3172 260.328H41.6876V262.348H43.7069V260.718L57.2045 247.22C57.7359 247.681 58.409 247.929 59.1175 247.929C59.9323 247.929 60.6763 247.61 61.2431 247.043C62.3768 245.91 62.4122 244.174 61.4203 242.969L67.9742 236.415C70.2415 238.505 73.8196 238.435 76.0161 236.238C78.2834 233.971 78.2834 230.251 76.0161 227.984C74.847 226.815 73.3591 226.248 71.8711 226.248C70.3478 226.248 68.8599 226.815 67.8325 227.948C65.636 230.145 65.5652 233.687 67.6554 235.99L61.1014 242.544C60.4992 242.084 59.8615 241.836 59.1175 241.836Z" fill="#202D37"/>
<path fill-rule="evenodd" clip-rule="evenodd" d="M22.9823 206.409L21.3881 208.003L19.7939 206.409C20.8567 206.303 21.9195 206.303 22.9823 206.409ZM78.8502 222.776C79.7359 223.449 80.4799 224.229 81.153 225.079H78.8502V222.776ZM97.4493 291.575C98.4767 290.158 99.256 288.564 99.752 286.828L99.7874 286.651L98.0204 284.883L98.0515 284.667C98.1932 283.958 98.2641 283.214 98.2641 282.47C98.2641 281.797 98.1932 281.124 98.087 280.415L100 278.502L99.9646 278.325C99.1143 275.349 97.4138 272.799 95.0403 270.815V269.539C95.0403 264.898 94.5089 260.222 93.4461 255.723L95.1111 252.818L92.1707 251.153C90.6119 246.299 88.4509 241.659 85.7585 237.372C86.2899 235.813 86.5733 234.148 86.5733 232.483C86.5733 229.932 85.9356 227.382 84.6957 225.185L84.6248 225.079H81.8615C81.0113 223.91 80.0193 222.918 78.8857 222.103L78.8857 219.34L78.7794 219.269C75.095 217.214 70.525 216.86 66.5572 218.206C62.2705 215.514 57.6651 213.388 52.7762 211.829L51.1111 208.889L48.1707 210.554C43.2464 209.42 38.1449 208.889 33.1143 208.995C31.1304 206.622 28.5443 204.886 25.6039 204.071L25.4267 204.035L23.5845 206.019C22.1983 205.811 20.8117 205.808 19.4254 206.041L17.3849 204L17.2077 204.035C15.4718 204.531 13.913 205.311 12.496 206.338V206.242L12.0709 206.643V206.763L12 207.401V210.589L12.4605 210.093C14.2468 208.237 16.6225 206.938 19.1753 206.464L21.5298 208.818L23.7971 206.551C26.029 206.976 28.1192 208.039 29.8551 209.597L29.9259 209.668H30.0322C31.0242 209.633 31.9453 209.597 32.9018 209.562C33.4332 210.2 33.8937 210.944 34.3188 211.688L34.3897 211.794H34.5668C38.1095 211.829 41.6522 212.148 45.1948 212.821H45.2657L50.934 209.597L54.2287 215.301L54.2995 215.337C57.6651 216.576 60.8889 218.135 63.9356 219.942L64.0419 220.013L64.1481 219.942C64.9275 219.517 65.7069 219.127 66.5217 218.844C67.3366 219.34 68.1514 219.907 68.9308 220.438L69.0016 220.509L69.1079 220.473C72.4026 219.836 75.7327 220.544 78.3897 222.386V225.61H81.6135C82.9952 227.665 83.7391 230.039 83.7391 232.554C83.7391 233.333 83.7037 234.113 83.5266 234.892L83.4911 234.998L83.562 235.069C84.0934 235.849 84.6248 236.663 85.1562 237.478C84.8728 238.293 84.5185 239.108 84.058 239.852L83.9871 239.958L84.058 240.064C85.8647 243.111 87.4235 246.335 88.6634 249.7L88.6989 249.771L94.4026 253.066L91.1787 258.734V258.805C91.8519 262.348 92.2061 265.961 92.2061 269.469V269.646L92.3833 269.681C93.1626 270.071 93.8357 270.567 94.5443 271.098C94.5443 272.055 94.5089 273.011 94.438 273.968V274.074L94.5089 274.145C96.0676 275.81 97.1304 277.936 97.5556 280.203L95.2882 282.47L97.3742 284.556L97.343 284.773C96.8824 287.359 95.5717 289.803 93.6586 291.61L93.1626 292.071H96.3865L97.4493 291.575Z" fill="#202D37"/>
</g>
</g>
</svg>
